<?xml version="1.0" encoding="UTF-8"?>
<svg width="93px" height="93px" viewBox="0 0 93 93" version="1.1" xmlns="http://www.w3.org/2000/svg" xmlns:xlink="http://www.w3.org/1999/xlink">
    <title>Combined Shape</title>
    <g id="Screens" stroke="none" stroke-width="1" fill="none" fill-rule="evenodd">
        <g id="01_8_My-Gigs" transform="translate(-1245.000000, -206.000000)" fill="#FFFFFF">
            <path d="M1279.64121,236.264 C1281.22492,236.264 1282.97879,236.576335 1284.84687,237.199025 C1289.2569,238.670304 1293.98105,241.75731 1298.10805,245.888166 C1302.2399,250.01616 1305.3269,254.740307 1306.79831,259.15071 C1308.41399,263.997757 1307.91306,267.906829 1305.53655,270.28334 C1304.48459,271.335295 1303.12983,272.014759 1301.47287,272.306764 L1301.47287,272.306764 L1301.21672,272.351906 L1255.75871,298.248658 L1255.62308,298.316393 C1254.65144,298.76758 1253.59506,299 1252.50121,299 C1251.40643,299 1250.34956,298.767187 1249.35553,298.306864 C1247.53557,297.46534 1246.156,295.968914 1245.46536,294.087178 C1244.7732,292.20129 1244.85507,290.170194 1245.6982,288.350641 L1245.6982,288.350641 L1245.76044,288.228464 L1271.64355,242.83273 L1271.68798,242.571451 L1271.75028,242.240269 C1272.06564,240.713712 1272.72579,239.452742 1273.71387,238.46466 C1275.14315,237.032059 1277.17747,236.264 1279.64121,236.264 Z M1271.90049,248.433041 L1248.43014,289.597031 L1248.35165,289.755798 L1248.25653,290.000435 C1247.90581,290.986929 1247.9124,292.063839 1248.27783,293.054922 C1248.6905,294.179306 1249.52323,295.083143 1250.61262,295.585939 C1251.20223,295.859904 1251.8418,296 1252.49721,296 C1253.09638,296 1253.68555,295.880349 1254.2413,295.647292 L1254.2413,295.647292 L1254.40374,295.567321 L1295.59708,272.098539 L1292.75626,270.928955 L1292.2652,270.720884 C1288.49649,269.078923 1284.6442,266.365667 1281.13787,262.85934 C1277.5263,259.247776 1274.70663,255.182219 1273.07426,251.25613 L1273.07426,251.25613 L1271.90049,248.433041 Z M1279.66521,239.272 C1278.14346,239.272 1276.802,239.619232 1275.83549,240.580406 C1274.21923,242.196653 1274.138,245.182429 1275.29437,248.646914 C1276.63572,252.662449 1279.46372,256.943999 1283.25713,260.733242 C1288.89934,266.371774 1295.15543,269.472 1299.54921,269.472 C1301.16537,269.472 1302.50909,269.051198 1303.40617,268.160349 C1305.02318,266.543347 1305.10442,263.557571 1303.94804,260.093086 C1302.61412,256.082826 1299.7874,251.804873 1295.98587,248.00334 C1292.18546,244.202929 1287.90769,241.375604 1283.8991,240.040824 C1282.35501,239.533532 1280.93913,239.272 1279.66521,239.272 Z M1322.50521,258.808 C1323.31118,258.808 1324.06052,259.116636 1324.62455,259.68066 C1325.19589,260.249327 1325.50521,260.994593 1325.50521,261.8 C1325.50521,262.535282 1325.25081,263.2184 1324.77417,263.766908 L1324.77417,263.766908 L1324.62455,263.92734 L1324.46593,264.074409 C1323.92245,264.54352 1323.23481,264.8 1322.50521,264.8 C1321.77392,264.8 1321.08988,264.545744 1320.54505,264.075015 L1320.54505,264.075015 L1320.38587,263.92734 L1320.23696,263.767656 C1319.76222,263.221285 1319.50517,262.537087 1319.50517,261.808 C1319.50275,261.070246 1319.76256,260.379721 1320.24793,259.827707 L1320.24793,259.827707 L1320.38587,259.68066 L1320.54419,259.533207 C1321.0866,259.063071 1321.77251,258.808 1322.50521,258.808 Z M1330.30521,247.228 C1332.3998,247.228 1334.5405,247.3478 1336.66416,247.582893 C1337.06303,247.626989 1337.41803,247.822705 1337.67064,248.137957 C1337.922,248.451658 1338.03453,248.839026 1337.99029,249.239175 C1337.9099,249.966522 1337.31625,250.527359 1336.58648,250.569437 L1336.58648,250.569437 L1336.45409,250.57262 L1335.31958,250.458254 C1333.64278,250.302999 1331.96249,250.224 1330.30921,250.224 C1324.95993,250.224 1319.62681,251.033085 1314.4592,252.626603 C1314.30921,252.673078 1314.1627,252.696 1314.02121,252.696 C1313.35411,252.696 1312.78309,252.275549 1312.58589,251.639686 C1312.34272,250.852368 1312.78791,250.008567 1313.57587,249.765197 C1319.02375,248.081729 1324.65444,247.228 1330.30521,247.228 Z M1305.54521,233.368 L1305.75912,233.375421 L1305.96989,233.397537 C1306.59694,233.485703 1307.17432,233.769257 1307.63734,234.221301 L1307.63734,234.221301 L1307.65201,234.235 L1307.83085,234.428317 C1308.28477,234.961493 1308.53328,235.634778 1308.53328,236.356 C1308.53589,237.160823 1308.22645,237.909438 1307.65655,238.47934 L1307.65655,238.47934 L1307.36503,238.721825 C1306.84248,239.126647 1306.20789,239.344 1305.53321,239.344 C1304.73603,239.344 1303.99412,239.039607 1303.42628,238.479809 L1303.42628,238.479809 L1303.40587,238.45934 L1303.27276,238.316271 C1302.2523,237.144802 1302.2968,235.345385 1303.40951,234.225009 L1303.40951,234.225009 L1303.60319,234.079833 L1303.75979,233.951168 C1304.24692,233.582141 1304.88547,233.368 1305.54521,233.368 L1305.54521,233.368 Z M1330.98521,232.72 C1331.69307,232.72 1332.31477,233.230341 1332.4545,233.926985 C1332.53497,234.321318 1332.45704,234.715076 1332.23198,235.053677 C1332.01021,235.387342 1331.67364,235.612585 1331.27327,235.694294 L1331.27327,235.694294 L1320.67514,237.813108 L1320.52721,237.836381 L1320.38121,237.844 C1319.67334,237.844 1319.05164,237.333659 1318.91192,236.637015 C1318.83145,236.242682 1318.90937,235.848924 1319.13443,235.510323 C1319.35621,235.176658 1319.69277,234.951415 1320.09315,234.869706 L1320.09315,234.869706 L1330.69128,232.750892 L1330.79223,232.733643 C1330.85877,232.72449 1330.92354,232.72 1330.98521,232.72 Z M1294.92121,206 C1295.68909,206 1296.33035,206.573347 1296.41429,207.332786 C1297.28395,215.151988 1296.55042,222.916797 1294.23197,230.42546 C1294.0388,231.059281 1293.46932,231.48 1292.80521,231.48 C1292.6554,231.48 1292.50324,231.457381 1292.35954,231.413473 C1291.57206,231.170861 1291.12666,230.327833 1291.3704,229.538658 C1293.5675,222.424827 1294.26273,215.065381 1293.43592,207.669352 C1293.34403,206.848276 1293.9395,206.10253 1294.76005,206.010692 C1294.78281,206.008259 1294.80386,206.00626 1294.82328,206.004676 L1294.82328,206.004676 Z M1275.83721,220.616 C1276.63977,220.616 1277.39156,220.92634 1277.95906,221.491165 C1279.11893,222.659035 1279.12141,224.563827 1277.96369,225.732216 C1277.39135,226.304539 1276.64148,226.616 1275.83721,226.616 C1275.04652,226.616 1274.31377,226.319443 1273.75046,225.772154 L1273.75046,225.772154 L1273.58294,225.595686 C1272.54836,224.419741 1272.59093,222.620708 1273.71228,221.494241 L1273.71228,221.494241 L1273.73787,221.46866 L1273.89402,221.325354 C1274.42953,220.868038 1275.11176,220.616 1275.83721,220.616 Z M1309.77321,211.512 C1309.86794,211.512 1309.96347,211.521748 1310.06127,211.541706 C1310.46371,211.621405 1310.7983,211.845844 1311.02743,212.18749 C1311.24904,212.520924 1311.32697,212.914682 1311.2475,213.30406 L1311.2475,213.30406 L1309.12632,223.913932 L1309.09253,224.049714 C1308.90572,224.671196 1308.31861,225.116 1307.65721,225.116 C1307.56176,225.116 1307.46423,225.106098 1307.35938,225.085129 C1306.96681,225.007015 1306.63035,224.781492 1306.40065,224.441048 C1306.18137,224.111076 1306.10345,223.717318 1306.18291,223.32794 L1306.18291,223.32794 L1308.3041,212.718068 L1308.33832,212.58149 C1308.52692,211.956564 1309.11253,211.512 1309.77321,211.512 Z M1322.49321,216.376 L1322.70868,216.383363 L1322.92068,216.4053 C1323.48088,216.483031 1323.99834,216.713818 1324.42834,217.078406 L1324.42834,217.078406 L1324.58101,217.217 L1324.74616,217.3984 C1325.73624,218.549142 1325.73915,220.224347 1324.76923,221.343937 L1324.76923,221.343937 L1324.63721,221.486731 L1324.56799,221.551386 L1324.28012,221.786954 C1323.78957,222.157814 1323.15427,222.372 1322.50521,222.372 L1322.50521,222.372 L1322.28995,222.364561 L1322.07799,222.342394 C1321.44761,222.254027 1320.86905,221.969869 1320.40767,221.517239 L1320.40767,221.517239 L1320.35387,221.46334 L1320.2116,221.307714 C1319.75761,220.774517 1319.50763,220.100032 1319.50517,219.3789 L1319.50517,219.3789 L1319.51097,219.18022 L1319.53213,218.964647 C1319.61858,218.32319 1319.91071,217.731816 1320.37787,217.26466 L1320.37787,217.26466 L1320.51,217.111 L1320.41542,217.22654 L1320.48502,217.163754 L1320.55238,217.111537 L1320.47101,217.164 L1320.63781,217.048448 L1320.82139,216.91146 C1321.32205,216.565795 1321.90794,216.378333 1322.49321,216.376 L1322.49321,216.376 Z" id="Combined-Shape" transform="translate(1291.499852, 252.500000) scale(-1, 1) translate(-1291.499852, -252.500000) "></path>
        </g>
    </g>
</svg>