<?xml version="1.0" encoding="UTF-8"?>
<svg width="44px" height="64px" viewBox="0 0 44 64" version="1.1" xmlns="http://www.w3.org/2000/svg" xmlns:xlink="http://www.w3.org/1999/xlink">
    <title>9825381A-BF03-46A3-AD6D-206A06A2B45D</title>
    <g id="Screens" stroke="none" stroke-width="1" fill="none" fill-rule="evenodd">
        <g id="03_2_My-Gigs" transform="translate(-346.000000, -807.000000)" fill-rule="nonzero">
            <g id="Group-11" transform="translate(305.000000, 182.000000)">
                <g id="Group-10-Copy-7" transform="translate(0.000000, 412.000000)">
                    <g id="Group-9" transform="translate(0.000000, 142.000000)">
                        <g id="Group-10" transform="translate(19.000000, 47.000000)">
                            <g id="Group-Copy-2" transform="translate(22.000000, 24.000000)">
                                <path d="M43.125,0 L43.125,64 L40.946,63.81 C37.299,63.21 33.573,62.777 29.87,62.521 L28.125,62.4 L28.125,7.5 L43.125,0 Z" id="Path_80" fill="#D5011D"></path>
                                <polygon id="Path_81" fill="#AA011A" points="15 0.166 15 56.666 0 63.998 0 0.166"></polygon>
                                <path d="M21.563,16.264 L25.313,16.264 L21.563,47.854 L14.982,62.408 L13.875,62.479 C9.965,62.729 6.029,63.179 2.175,63.81 L-0.004,64 L21.563,16.264 Z" id="Path_82" fill="#D5011D"></path>
                                <polygon id="Path_83" fill="#FF0021" points="28.808 0.166 43.124 0.166 21.561 47.855 21.561 16.265"></polygon>
                            </g>
                        </g>
                    </g>
                </g>
            </g>
        </g>
    </g>
</svg>