<?xml version="1.0" encoding="UTF-8"?>
<svg width="62px" height="62px" viewBox="0 0 62 62" version="1.1" xmlns="http://www.w3.org/2000/svg" xmlns:xlink="http://www.w3.org/1999/xlink">
    <title>C23ADC25-9150-4E3C-9043-97A704EBE690</title>
    <g id="Screens" stroke="none" stroke-width="1" fill="none" fill-rule="evenodd">
        <g id="03_1_My-Gigs" transform="translate(-1264.000000, -221.000000)" fill="#FFFFFF" stroke="#FFFFFF">
            <g id="Group-10-Copy-4" transform="translate(305.000000, 182.000000)">
                <path d="M988.113967,43.8790184 C993.313489,43.8790184 998.405141,45.3295584 1002.84166,48.073953 C1003.09274,48.2290286 1003.26628,48.4700816 1003.33185,48.7542053 C1003.40048,49.0452058 1003.35281,49.3381166 1003.19648,49.5927039 C1002.99617,49.9172935 1002.64845,50.1107817 1002.26158,50.1107817 C1002.05811,50.1107817 1001.85739,50.0534332 1001.68315,49.945086 C997.593755,47.4164619 992.900083,46.079998 988.108822,46.079998 C979.056168,46.079998 970.809945,50.6625187 966.064373,58.3308955 C958.556305,70.4634032 962.317634,86.4410311 974.451092,93.9507007 C978.537781,96.4803028 983.231412,97.8174378 988.023936,97.8174378 C997.076866,97.8174378 1005.32292,93.2346882 1010.07092,85.5640353 C1014.63651,78.1841424 1015.20708,69.068048 1011.59629,61.1795805 C1011.4736,60.9105357 1011.46252,60.6134094 1011.56537,60.3371776 C1011.66852,60.0601485 1011.87082,59.8425798 1012.14179,59.7175206 C1012.28525,59.6523232 1012.4385,59.6188814 1012.59705,59.6188814 C1013.02423,59.6188814 1013.41933,59.872574 1013.59808,60.2623051 C1017.51619,68.825675 1016.89824,78.7162361 1011.94382,86.7212646 C1006.79017,95.0490748 997.85256,100.018417 988.023936,100.018417 C982.8247,100.018417 977.73293,98.5680267 973.293491,95.823373 C960.13032,87.676647 956.048796,70.3384853 964.194148,57.1734967 C969.346661,48.8475156 978.285878,43.8790184 988.113967,43.8790184 Z M1018.89917,40 C1019.15451,40 1019.40498,40.0909425 1019.60473,40.2566573 C1019.83162,40.4452427 1019.96884,40.706031 1019.99528,40.9998593 C1020.02201,41.2967861 1019.93472,41.5771661 1019.74552,41.8030291 L1019.74552,41.8030291 L991.983944,75.1210327 L991.814124,75.3147421 C991.581378,75.566831 991.323672,75.7938486 991.044747,75.9920782 C990.184703,76.6060764 989.179843,76.9295122 988.134545,76.9295122 C987.8501,76.9295122 987.567575,76.9066198 987.300597,76.8614059 C985.970863,76.6397807 984.81465,75.9188074 984.035102,74.8256731 L984.035102,74.8256731 L975.56157,62.964271 L975.504339,62.8752154 C975.224732,62.3905782 975.353546,61.7604327 975.816503,61.4297489 C976.005837,61.2951469 976.226829,61.2239925 976.456333,61.2239925 C976.811857,61.2239925 977.147241,61.3962817 977.354101,61.685299 L977.354101,61.685299 L985.826803,73.5455382 L985.923314,73.6736194 C986.355697,74.2147842 986.969638,74.5742419 987.661979,74.6890692 C987.825973,74.7151774 987.981784,74.7285326 988.134545,74.7285326 C988.720105,74.7285326 989.286981,74.5452146 989.768622,74.2011854 C989.963319,74.0631335 990.139234,73.8999796 990.294478,73.7151653 L990.294478,73.7151653 L1018.05424,40.3962614 L1018.12777,40.3160721 C1018.33281,40.1132951 1018.60723,40 1018.89917,40 Z" id="Combined-Shape"></path>
            </g>
        </g>
    </g>
</svg>