<?xml version="1.0" encoding="UTF-8"?>
<svg width="54px" height="19px" viewBox="0 0 54 19" version="1.1" xmlns="http://www.w3.org/2000/svg" xmlns:xlink="http://www.w3.org/1999/xlink">
    <title>A40B8834-EA77-4934-83FE-BE557020ECD7</title>
    <g id="Page-1" stroke="none" stroke-width="1" fill="none" fill-rule="evenodd">
        <g id="01_3_Find-Work-Challenges-Non-Logged-In-Hover" transform="translate(-30.000000, -30.000000)" fill="#F4F4F4">
            <g id="Logo/Topcoder/Logomark" transform="translate(30.000000, 30.000000)">
                <path d="M6.18072289,6.5060241 C8.00705668,6.5060241 9.8687374,6.66508534 11.6861617,6.92378559 C10.4021081,8.67400603 9.32845008,10.6568432 8.51654825,12.825829 C7.78081915,14.7913204 7.27854022,16.8661565 7.0244621,19.0048139 C2.87726227,18.5458402 0,11.9790643 0,10.4096386 C0,7.80722892 3.01963723,6.5060241 6.18072289,6.5060241 Z M47.8192771,6.5060241 C50.9803628,6.5060241 54,7.80722892 54,10.4096386 C54,11.979065 51.122735,18.5458464 46.975532,19.0048146 C46.7000975,16.6863767 46.1330793,14.4435425 45.2938267,12.3346794 C44.5063802,10.3559939 43.4994896,8.54036709 42.3136519,6.92381213 C44.1311353,6.66509622 45.9928809,6.5060241 47.8192771,6.5060241 Z M13.1476298,7.15405618 C20.2704683,8.38200018 26.3493976,10.9369064 26.3493976,11.060241 C25.6987952,11.060241 20.2210683,12.7034565 16.4277108,14.8012048 C13.4227752,16.4629513 10.6458679,18.5016222 8.3430523,18.9431963 C8.5956597,16.958317 9.06994145,15.0591533 9.73517521,13.2819894 C10.5834214,11.01591 11.7421376,8.94819073 13.1476298,7.15405618 Z M40.8523713,7.15405752 C42.1608932,8.82440812 43.2555163,10.7318945 44.0848417,12.8158125 C44.8448937,14.7256615 45.3821173,16.7836986 45.6569477,18.9431963 C43.3541321,18.5016222 40.5772248,16.4629513 37.5722892,14.8012048 C33.7789317,12.7034565 28.3012048,11.060241 27.6506024,11.060241 C27.6506024,10.9369064 33.7295317,8.38200018 40.8523713,7.15405752 Z M27,0 C31.9806529,0 36.5105537,2.2792778 39.8826998,6.00283899 C37.8721654,6.37834146 35.8238678,6.87586503 33.7727194,7.47276005 C32.0202885,7.98272672 30.3714909,8.53764247 28.9893559,9.06402351 C28.4371749,9.27431962 27.054221,9.88807204 27,9.91598159 C26.945779,9.88807204 25.5628251,9.27431962 25.0106441,9.06402351 C23.6285091,8.53764247 21.9797115,7.98272672 20.2272806,7.47276005 C18.1761322,6.87586503 16.1278346,6.37834146 14.1173002,6.00283899 C17.4894463,2.2792778 22.0193471,0 27,0 Z" id="Logo"></path>
            </g>
        </g>
    </g>
</svg>