<?xml version="1.0" encoding="utf-8"?>
<svg width="132px" height="138px" viewBox="0 0 132 138" version="1.1" xmlns:xlink="http://www.w3.org/1999/xlink" xmlns="http://www.w3.org/2000/svg">
  <path d="M11.2027 127.818C5.23846 127.818 0.214587 122.94 0 116.937L0 10.8935C0.302947 4.73354 5.21952 0 11.1964 0C11.3668 0 11.5372 0.00631139 11.7013 0.0126228L130.507 0.00631139C130.557 0 130.709 0 130.86 0C136.711 0 141.703 4.78403 141.994 10.6599L142 116.767C141.779 123.003 136.818 127.812 130.709 127.812L130.355 127.806L123.066 127.806C120.453 127.806 118.332 125.685 118.332 123.072C118.332 120.459 120.453 118.339 123.066 118.339L130.513 118.339C131.681 118.339 132.501 117.569 132.539 116.59L132.539 10.8872C132.501 10.1866 131.687 9.46078 130.804 9.46078C130.759 9.46709 11.4867 9.4734 11.4867 9.4734L11.2658 9.46709C10.2813 9.46709 9.50496 10.1803 9.45446 11.127L9.46078 116.767C9.49233 117.569 10.3317 118.351 11.2658 118.351L18.9279 118.345C21.5408 118.345 23.6614 120.466 23.6614 123.078C23.6614 125.691 21.5408 127.812 18.9279 127.812L11.2027 127.818ZM28.395 33.1411C25.782 33.1411 23.6614 31.0205 23.6614 28.4076C23.6614 25.7947 25.782 23.674 28.395 23.674L113.599 23.674C116.212 23.674 118.332 25.7947 118.332 28.4076C118.332 31.0205 116.212 33.1411 113.599 33.1411L28.395 33.1411ZM23.4531 52.0753C23.4531 54.6882 25.5738 56.8088 28.1867 56.8088L89.931 56.8088C92.5439 56.8088 94.6646 54.6882 94.6646 52.0753C94.6646 49.4624 92.5439 47.3417 89.931 47.3417L28.1867 47.3417C25.5738 47.3417 23.4531 49.4624 23.4531 52.0753ZM70.9968 151.48C48.8123 151.48 30.7617 133.429 30.7617 111.245C30.7617 89.0601 48.8123 71.0095 70.9968 71.0095C93.1814 71.0095 111.232 89.0601 111.232 111.245C111.232 133.429 93.1814 151.48 70.9968 151.48ZM70.9968 80.4766C54.0318 80.4766 40.2288 94.2796 40.2288 111.245C40.2288 128.21 54.0318 142.013 70.9968 142.013C87.9619 142.013 101.765 128.21 101.765 111.245C101.765 94.2796 87.9619 80.4766 70.9968 80.4766ZM61.4414 126.922C62.9688 128.071 64.7738 128.677 66.6735 128.677C67.0775 128.677 67.4877 128.645 67.8916 128.582C70.1953 128.26 72.2339 127.055 73.6413 125.186L89.0285 104.668C89.7922 103.658 90.1077 102.409 89.931 101.159C89.748 99.9093 89.0916 98.7985 88.0818 98.0412C87.2613 97.4226 86.2767 97.0945 85.248 97.0945C83.7648 97.0945 82.351 97.8013 81.4611 98.9879L66.5978 118.812L59.2577 111.472C58.3677 110.576 57.1749 110.083 55.9126 110.083C54.6503 110.083 53.4638 110.576 52.5676 111.472C50.7247 113.321 50.7247 116.325 52.5676 118.168L60.5515 126.152C60.8292 126.43 61.1321 126.689 61.4414 126.922Z" transform="translate(0.5 -14)" id="Combined-Shape" fill="#E9E9E9" opacity="0.8" fill-rule="evenodd" stroke="none" />
</svg>