<?xml version="1.0" encoding="utf-8"?>
<svg width="15px" height="9px" viewBox="0 0 15 9" version="1.1" xmlns:xlink="http://www.w3.org/1999/xlink" xmlns="http://www.w3.org/2000/svg">
  <path d="M6.79207 8.28899L0.706015 2.17648Q0.635524 2.10568 0.579796 2.02276Q0.524068 1.93984 0.485141 1.84783Q0.446214 1.75581 0.425512 1.65808Q0.404809 1.56034 0.403088 1.46044Q0.401366 1.36055 0.418689 1.26216Q0.436011 1.16376 0.471745 1.07047Q0.507478 0.977168 0.560315 0.892377Q0.613153 0.807585 0.681163 0.7344L0.682526 0.732934Q0.715509 0.697441 0.751891 0.66544Q0.788272 0.633439 0.827683 0.605254Q0.867094 0.577068 0.909137 0.552983Q0.951179 0.528898 0.995428 0.509157Q1.03968 0.489417 1.08568 0.47422Q1.13169 0.459023 1.17899 0.448523Q1.2263 0.438023 1.27441 0.432327Q1.32253 0.426631 1.37097 0.425796Q1.41942 0.424961 1.4677 0.428996Q1.51599 0.433031 1.56362 0.441894Q1.61126 0.450758 1.65776 0.464361Q1.70427 0.477963 1.74917 0.496168Q1.79407 0.514372 1.83692 0.536994Q1.87977 0.559616 1.92013 0.586427Q1.96049 0.613238 1.99795 0.643966Q2.03541 0.674695 2.0696 0.70903L7.5 6.16304L12.9304 0.70903Q12.9646 0.674695 13.0021 0.643966Q13.0395 0.613238 13.0799 0.586427Q13.1202 0.559616 13.1631 0.536994Q13.2059 0.514372 13.2508 0.496168Q13.2957 0.477963 13.3422 0.464361Q13.3887 0.450758 13.4364 0.441895Q13.484 0.433031 13.5323 0.428996Q13.5806 0.424961 13.629 0.425796Q13.6775 0.426631 13.7256 0.432327Q13.7737 0.438023 13.821 0.448523Q13.8683 0.459023 13.9143 0.47422Q13.9603 0.489417 14.0046 0.509158Q14.0488 0.528898 14.0909 0.552983Q14.1329 0.577068 14.1723 0.605254Q14.2117 0.633439 14.2481 0.66544Q14.2845 0.697441 14.3175 0.732934L14.3188 0.7344Q14.3868 0.807585 14.4397 0.892377Q14.4925 0.977168 14.5283 1.07047Q14.564 1.16376 14.5813 1.26216Q14.5986 1.36055 14.5969 1.46044Q14.5952 1.56034 14.5745 1.65808Q14.5538 1.75581 14.5149 1.84783Q14.4759 1.93984 14.4202 2.02276Q14.3645 2.10568 14.294 2.17648L8.20793 8.28899Q8.13831 8.35891 8.05637 8.41386Q7.97442 8.46881 7.8833 8.50667Q7.79219 8.54452 7.69543 8.56383Q7.59867 8.58313 7.5 8.58313Q7.40133 8.58313 7.30457 8.56383Q7.20781 8.54452 7.1167 8.50667Q7.02558 8.46881 6.94363 8.41386Q6.86169 8.35891 6.79207 8.28899Z" id="arrow" fill="#0981FF" fill-rule="evenodd" stroke="none" />
</svg>