<?xml version="1.0" encoding="UTF-8"?>
<svg width="15px" height="9px" viewBox="0 0 15 9" version="1.1" xmlns="http://www.w3.org/2000/svg" xmlns:xlink="http://www.w3.org/1999/xlink">
    <title>2F48C66D-6E88-40BD-8F0F-1ABB211BC6D0</title>
    <g id="Page-1" stroke="none" stroke-width="1" fill="none" fill-rule="evenodd">
        <g id="07_1_Past-Challenges" transform="translate(-429.000000, -1552.000000)" fill="#137D60">
            <g id="input/filled-copy" transform="translate(329.000000, 1523.000000)">
                <g id="Padding-Group-3" transform="translate(100.000000, 29.000000)">
                    <path d="M6.79136103,8.28827999 L0.706694117,2.177158 C0.312040057,1.78078806 0.301056114,1.14342875 0.681818182,0.733695652 C1.04404108,0.343912318 1.65366258,0.321570169 2.04344591,0.683793065 C2.05257457,0.692276261 2.06153778,0.700935768 2.07033048,0.7097667 L7.5,6.16304348 L7.5,6.16304348 L12.9296695,0.7097667 C13.305108,0.332695867 13.9151374,0.331372593 14.2922082,0.706811085 C14.3010391,0.715603787 14.3096986,0.724566996 14.3181818,0.733695652 C14.6989439,1.14342875 14.6879599,1.78078806 14.2933059,2.177158 L8.20863897,8.28827999 C7.81896272,8.67965049 7.18579923,8.68102394 6.79442873,8.29134769 C6.79340395,8.29032735 6.79238138,8.28930478 6.79136103,8.28827999 Z" id="arrow"></path>
                </g>
            </g>
        </g>
    </g>
</svg>