<?xml version="1.0" encoding="UTF-8"?>
<svg width="16px" height="16px" viewBox="0 0 16 16" version="1.1" xmlns="http://www.w3.org/2000/svg" xmlns:xlink="http://www.w3.org/1999/xlink">
    <g id="Page-1" stroke="none" stroke-width="1" fill="none" fill-rule="evenodd">
        <g id="03_2_My-Challenges" transform="translate(-1315.000000, -123.000000)">
            <g id="icons/grid" transform="translate(1315.000000, 123.000000)">
              <path fill="#7F7F7F" d="M6,9 C6.6,9 7,9.4 7,10 L7,10 L7,15 C7,15.6 6.6,16 6,16 L6,16 L1,16 C0.4,16 0,15.6 0,15 L0,15 L0,10 C0,9.4 0.4,9 1,9 L1,9 Z M15,9 C15.6,9 16,9.4 16,10 L16,10 L16,15 C16,15.6 15.6,16 15,16 L15,16 L10,16 C9.4,16 9,15.6 9,15 L9,15 L9,10 C9,9.4 9.4,9 10,9 L10,9 Z M6,0 C6.6,0 7,0.4 7,1 L7,1 L7,6 C7,6.6 6.6,7 6,7 L6,7 L1,7 C0.4,7 0,6.6 0,6 L0,6 L0,1 C0,0.4 0.4,0 1,0 L1,0 Z M15,0 C15.6,0 16,0.4 16,1 L16,1 L16,6 C16,6.6 15.6,7 15,7 L15,7 L10,7 C9.4,7 9,6.6 9,6 L9,6 L9,1 C9,0.4 9.4,0 10,0 L10,0 Z"></path>
        </g>
        </g>
    </g>
</svg>