<?xml version="1.0" encoding="UTF-8"?>
<svg width="20px" height="20px" viewBox="0 0 20 20" version="1.1" xmlns="http://www.w3.org/2000/svg" xmlns:xlink="http://www.w3.org/1999/xlink">
    <g stroke="none" stroke-width="1" fill="none" fill-rule="evenodd">
        <g transform="translate(-362.000000, -385.000000)">
            <g transform="translate(305.000000, 182.000000)">
                <g transform="translate(49.000000, 203.000000)">
                    <g transform="translate(10.500000, 0.000000)">
                        <g transform="translate(-2.500000, 0.000000)">
                            <circle stroke="#FFFFFF" stroke-width="0" fill="#06D6A0" cx="10" cy="10" r="10"></circle>
                            <g id="check" transform="translate(1.666667, 1.666667)">
                                <g>
                                    <rect x="0" y="0" width="16.6666667" height="16.6666667"></rect>
                                    <path d="M6.29008905,12.2488407 C6.4517379,12.4146058 6.6672697,12.5 6.88280149,12.5 C7.09833329,12.5 7.31386509,12.4146058 7.47551394,12.2488407 L13.9205196,5.63971613 C14.2487157,5.30316263 14.2487157,4.75563529 13.9205196,4.41908179 C13.5923234,4.08252829 13.0583924,4.08252829 12.7301962,4.41908179 L6.87790304,10.4204008 L3.93647044,7.40406602 C3.6082743,7.06751252 3.07434326,7.06751252 2.74614711,7.40406602 C2.41795096,7.74061952 2.41795096,8.28814685 2.74614711,8.62470035 L6.29008905,12.2488407 Z" fill="#fff" transform="translate(8.333333, 8.333333) rotate(-360.000000) translate(-8.333333, -8.333333) "></path>
                                </g>
                            </g>
                        </g>
                    </g>
                </g>
            </g>
        </g>
    </g>
</svg>