<?xml version="1.0" encoding="UTF-8"?>
<svg width="18px" height="18px" viewBox="0 0 18 18" version="1.1" xmlns="http://www.w3.org/2000/svg" xmlns:xlink="http://www.w3.org/1999/xlink">
    <g stroke="none" stroke-width="1" fill="none" fill-rule="evenodd">
        <g transform="translate(-1081.000000, -101.000000)">
            <g transform="translate(270.000000, 70.000000)">
                <g transform="translate(811.250000, 31.250000)">
                    <path fill="#2A2A2A" d="M17.125,0.375 C16.625,-0.125 15.875,-0.125 15.375,0.375 L8.75,7 L2.125,0.375 C1.625,-0.125 0.875,-0.125 0.375,0.375 C-0.125,0.875 -0.125,1.625 0.375,2.125 L7,8.75 L0.375,15.375 C-0.125,15.875 -0.125,16.625 0.375,17.125 C0.625,17.375 0.875,17.5 1.25,17.5 C1.625,17.5 1.875,17.375 2.125,17.125 L8.75,10.5 L15.375,17.125 C15.625,17.375 16,17.5 16.25,17.5 C16.5,17.5 16.875,17.375 17.125,17.125 C17.625,16.625 17.625,15.875 17.125,15.375 L10.5,8.75 L17.125,2.125 C17.625,1.625 17.625,0.875 17.125,0.375 L17.125,0.375 Z"></path>
                </g>
            </g>
        </g>
    </g>
</svg>