<?xml version="1.0" encoding="utf-8"?>
<svg width="16px" height="16px" viewBox="0 0 16 16" version="1.1" xmlns:xlink="http://www.w3.org/1999/xlink" xmlns="http://www.w3.org/2000/svg">
  <g id="iconsmetainfo">
    <path d="M8 16C3.6 16 0 12.4 0 8C0 3.6 3.6 0 8 0C12.4 0 16 3.6 16 8C16 12.4 12.4 16 8 16ZM2 8C2 11.3 4.7 14 8 14C11.3 14 14 11.3 14 8C14 4.7 11.3 2 8 2C4.7 2 2 4.7 2 8ZM9 5C9 4.448 8.552 4 8 4C7.448 4 7 4.448 7 5C7 5.552 7.448 6 8 6C8.552 6 9 5.552 9 5ZM7.0003 7L9.0003 7L9.0003 12L7.0003 12L7.0003 7Z" fill="#2A2A2A" fill-rule="evenodd" stroke="none" />
  </g>
</svg>