<?xml version="1.0" encoding="UTF-8"?>
<svg width="24px" height="22px" viewBox="0 0 24 22" version="1.1" xmlns="http://www.w3.org/2000/svg" xmlns:xlink="http://www.w3.org/1999/xlink">
    <title>C087C319-6EC3-4D78-A758-D1B398901B5D</title>
    <g id="Page-1" stroke="none" stroke-width="1" fill="none" fill-rule="evenodd">
        <g id="07_3_Past-Challenges" transform="translate(-18.000000, -107.000000)" fill="#9D9D9D" fill-rule="nonzero">
            <g id="Side-Nav/TaaS" transform="translate(0.000000, 80.000000)">
                <g id="Menu-item/open/normal" transform="translate(18.500000, 27.000000)">
                    <g id="Menu-icon/01" transform="translate(-0.000000, 0.000000)">
                        <path d="M13.2188712,-1.10134124e-13 C14.201842,-1.10134124e-13 15.0532925,0.681856753 15.2681103,1.64106737 L15.2681103,1.64106737 L15.901,4.47 L19.099,4.47 L19.1,3.47 C19.1,3.1388 19.3688,2.87 19.7,2.87 C20.0312,2.87 20.3,3.1388 20.3,3.47 L20.299,4.47 L21.4,4.47 C22.3928,4.47 23.2,5.2772 23.2,6.27 L23.2,19.87 C23.2,20.8628 22.3928,21.67 21.4,21.67 L1.8,21.67 C0.8072,21.67 1.98951966e-13,20.8628 1.98951966e-13,19.87 L1.98951966e-13,6.27 C1.98951966e-13,5.2772 0.8072,4.47 1.8,4.47 L3.099,4.47 L3.1,3.47 C3.1,3.1388 3.3688,2.87 3.7,2.87 C4.0312,2.87 4.3,3.1388 4.3,3.47 L4.299,4.47 L7.118,4.47 L7.75198778,1.64106737 C7.95487127,0.735146232 8.72561533,0.0766178919 9.63870279,0.00624412925 L9.80122687,-1.10134124e-13 Z M21.4,5.67 L1.8,5.67 C1.4688,5.67 1.2,5.9388 1.2,6.27 L1.2,19.87 C1.2,20.2012 1.4688,20.47 1.8,20.47 L21.4,20.47 C21.7312,20.47 22,20.2012 22,19.87 L22,6.27 C22,5.9388 21.7312,5.67 21.4,5.67 Z M17.6,15.57 C17.9312,15.57 18.2,15.8388 18.2,16.17 C18.2,16.5012 17.9312,16.77 17.6,16.77 L5.2,16.77 C4.8688,16.77 4.6,16.5012 4.6,16.17 C4.6,15.8388 4.8688,15.57 5.2,15.57 L17.6,15.57 Z M17.6,9.57 C17.9312,9.57 18.2,9.8388 18.2,10.17 C18.2,10.5012 17.9312,10.77 17.6,10.77 L5.2,10.77 C4.8688,10.77 4.6,10.5012 4.6,10.17 C4.6,9.8388 4.8688,9.57 5.2,9.57 L17.6,9.57 Z M13.2188712,1.2 L9.80122687,1.2 C9.37995365,1.2 9.01504632,1.49222432 8.92298155,1.90331459 L8.92298155,1.90331459 L8.349,4.466 L14.67,4.466 L14.0971165,1.90331459 C14.0134213,1.52959616 13.7042363,1.25411406 13.3322037,1.20711498 L13.3322037,1.20711498 L13.2188712,1.2 Z" id="Combined-Shape"></path>
                    </g>
                </g>
            </g>
        </g>
    </g>
</svg>