<?xml version="1.0" encoding="UTF-8"?>
<svg width="16px" height="16px" viewBox="0 0 16 16" version="1.1" xmlns="http://www.w3.org/2000/svg" xmlns:xlink="http://www.w3.org/1999/xlink">
    <g stroke="none" stroke-width="1" fill="none" fill-rule="evenodd">
        <g transform="translate(-325.000000, -340.000000)">
            <g transform="translate(305.000000, 182.000000)">
                <g transform="translate(0.000000, 142.000000)">
                    <g transform="translate(20.000000, 14.000000)">
                        <g transform="translate(0.000000, 2.000000)">
                            <path d="M15,1 L12,1 L12,3 L14,3 L14,14 L2,14 L2,3 L4,3 L4,1 L1,1 C0.4,1 0,1.4 0,2 L0,15 C0,15.6 0.4,16 1,16 L15,16 C15.6,16 16,15.6 16,15 L16,2 C16,1.4 15.6,1 15,1 Z" fill="#4444447F" fill-rule="nonzero"></path>
                            <rect fill="#4444447F" fill-rule="nonzero" x="5" y="0" width="6" height="4"></rect>
                            <rect fill="#4444447F" fill-rule="nonzero" x="4" y="6" width="8" height="2"></rect>
                            <rect fill="#4444447F" fill-rule="nonzero" x="4" y="10" width="8" height="2"></rect>
                        </g>
                    </g>
                </g>
            </g>
        </g>
    </g>
</svg>