<?xml version="1.0" encoding="UTF-8"?>
<svg width="14px" height="14px" viewBox="0 0 14 14" version="1.1" xmlns="http://www.w3.org/2000/svg" xmlns:xlink="http://www.w3.org/1999/xlink">
    <g stroke="none" stroke-width="1" fill="none" fill-rule="evenodd">
        <g transform="translate(-379.000000, -198.000000)">
            <g transform="translate(305.000000, 182.000000)">
                <g transform="translate(0.000000, 10.000000)">
                    <g transform="translate(10.000000, 6.000000)">
                        <g transform="translate(64.000000, 0.000000)">
                            <path d="M7,0 C10.85,0 14,3.15 14,7 C14,10.85 10.85,14 7,14 C3.15,14 0,10.85 0,7 C0,3.15 3.15,0 7,0 Z M7,1.75 C4.1125,1.75 1.75,4.1125 1.75,7 C1.75,9.8875 4.1125,12.25 7,12.25 C9.8875,12.25 12.25,9.8875 12.25,7 C12.25,4.1125 9.8875,1.75 7,1.75 Z M7.8752625,6.125 L7.8752625,10.5 L6.1252625,10.5 L6.1252625,6.125 L7.8752625,6.125 Z M7,3.5 C7.483,3.5 7.875,3.892 7.875,4.375 C7.875,4.858 7.483,5.25 7,5.25 C6.517,5.25 6.125,4.858 6.125,4.375 C6.125,3.892 6.517,3.5 7,3.5 Z"></path>
                        </g>
                    </g>
                </g>
            </g>
        </g>
    </g>
</svg>