<?xml version="1.0" encoding="UTF-8"?>
<svg width="45px" height="48px" viewBox="0 0 45 48" version="1.1" xmlns="http://www.w3.org/2000/svg" xmlns:xlink="http://www.w3.org/1999/xlink">
    <title>AC4D4B5E-93F9-4F74-A2B8-9AE81B345347</title>
    <defs>
        <filter id="filter-1">
            <feColorMatrix in="SourceGraphic" type="matrix" values="0 0 0 0 1.000000 0 0 0 0 1.000000 0 0 0 0 1.000000 0 0 0 1.000000 0"></feColorMatrix>
        </filter>
    </defs>
    <g id="Page-1" stroke="none" stroke-width="1" fill="none" fill-rule="evenodd">
        <g id="01_3_Find-Work-Challenges-Non-Logged-In-Hover" transform="translate(-345.000000, -1162.000000)">
            <g id="Group-19" transform="translate(329.000000, 1144.000000)">
                <g id="icon-/-challenge-/-track" transform="translate(16.000000, 18.000000)">
                    <path d="M18,0 C27.9255,0 36,8.0745 36,18 C36,27.9255 27.9255,36 18,36 C8.0745,36 0,27.9255 0,18 C0,8.0745 8.0745,0 18,0 Z M18,2.25 C9.315,2.25 2.25,9.315 2.25,18 C2.25,26.685 9.315,33.75 18,33.75 C26.685,33.75 33.75,26.685 33.75,18 C33.75,9.315 26.685,2.25 18,2.25 Z M21.177,5.733 C21.477,5.733 21.7605,5.85 21.972,6.063 C22.185,6.2745 22.302,6.558 22.302,6.858 C22.302,7.158 22.185,7.4415 21.972,7.653 L17.094,12.531 L19.2,13.2345 C19.668,13.3905 20.1135,13.608 20.5275,13.8825 L25.956,8.454 C26.169,8.241 26.451,8.124 26.751,8.124 C27.051,8.124 27.3345,8.241 27.546,8.454 C27.759,8.6655 27.876,8.949 27.876,9.249 C27.876,9.549 27.759,9.8325 27.546,10.044 L22.1175,15.4725 C22.3905,15.8835 22.6065,16.3275 22.7625,16.7955 L23.4645,18.9 L28.3425,14.022 C28.5555,13.809 28.8375,13.692 29.1375,13.692 C29.4375,13.692 29.721,13.809 29.9325,14.022 C30.1455,14.235 30.2625,14.517 30.2625,14.817 C30.2625,15.117 30.1455,15.4005 29.9325,15.612 L23.7675,21.777 C23.7585,21.786 23.7495,21.7935 23.7405,21.8025 C23.718,21.822 23.694,21.8415 23.6715,21.861 C23.64,21.8865 23.61,21.9105 23.577,21.93 C23.562,21.9405 23.517,21.9645 23.5005,21.972 C23.475,21.987 23.445,22.002 23.4135,22.0155 C23.394,22.0245 23.373,22.0335 23.352,22.0395 L10.449,27.0015 C10.32,27.054 10.185,27.0795 10.0455,27.0795 C9.744,27.0795 9.462,26.9625 9.249,26.7495 C8.9355,26.436 8.835,25.965 8.9955,25.551 L13.9335,12.7095 C13.986,12.5265 14.0835,12.36 14.217,12.228 L20.382,6.063 C20.595,5.85 20.877,5.733 21.177,5.733 Z M15.6825,14.4315 L12.0045,23.9955 L21.5655,20.319 L20.628,17.5065 C20.2935,16.5015 19.4955,15.702 18.4905,15.3675 L15.6825,14.4315 Z" id="Combined-Shape" fill="#2984BD"></path>
                </g>
            </g>
        </g>
    </g>
</svg>