<?xml version="1.0" encoding="UTF-8"?>
<svg width="45px" height="48px" viewBox="0 0 45 48" version="1.1" xmlns="http://www.w3.org/2000/svg" xmlns:xlink="http://www.w3.org/1999/xlink">
    <title>DE0551FC-97AC-4CB0-9254-C3C58445CA86</title>
    <g id="Page-1" stroke="none" stroke-width="1" fill="none" fill-rule="evenodd">
        <g id="01_3_Find-Work-Challenges-Non-Logged-In-Hover" transform="translate(-345.000000, -767.000000)">
            <g id="Group-15-Copy-4" transform="translate(329.000000, 749.000000)">
                <g id="icon-/-challenge-/-track-copy-2" transform="translate(16.033448, 18.418400)">
                    <path d="M4.60047204,3.2688 C7.46319204,3.2688 12.254072,6.71472 14.988632,8.88624 C15.733112,8.74224 16.493432,8.6688 17.252312,8.6688 C17.682872,8.6688 18.117752,8.69184 18.546872,8.73936 C19.949432,7.60176 21.409592,6.53472 22.892792,5.56272 C23.068472,5.44752 23.272952,5.3856 23.483192,5.3856 C23.848952,5.3856 24.187352,5.56848 24.387512,5.87376 C24.545912,6.11424 24.600632,6.40368 24.541592,6.68592 C24.482552,6.96816 24.316952,7.21152 24.076472,7.36848 C23.133272,7.98624 22.190072,8.65152 21.259832,9.35568 C23.015192,9.97776 24.586232,10.99872 25.870712,12.35088 C26.347352,11.69568 26.777912,11.08224 27.179672,10.48752 C27.381272,10.18944 27.716792,10.01232 28.075352,10.01232 C28.291352,10.01232 28.500152,10.07568 28.678712,10.19664 C28.917752,10.35792 29.080472,10.60272 29.135192,10.8864 C29.189912,11.17008 29.130872,11.45664 28.969592,11.69568 C28.438232,12.48336 27.862232,13.29552 27.257432,14.11488 C28.822712,16.54416 29.446232,19.43712 29.014232,22.3056 C28.922072,22.91616 28.779512,23.52816 28.590872,24.12864 C32.212472,29.18016 33.233432,32.3784 31.711352,33.90192 C31.277912,34.3368 30.697592,34.55712 29.986232,34.55712 C29.627672,34.55712 29.231672,34.49952 28.805432,34.38576 C27.336632,33.99408 25.322072,32.86656 22.816472,31.03344 C21.108632,31.93776 19.203512,32.4144 17.281112,32.4144 C14.968472,32.4144 12.740792,31.75488 10.809752,30.50496 C8.18895204,32.4144 4.72287204,34.57584 2.46495204,34.57584 L2.46351204,34.57584 L2.46351204,34.57872 C1.70895204,34.57872 1.09983204,34.3512 0.653432044,33.90336 C-1.49360796,31.75632 2.05167204,26.23248 5.47311204,21.9024 C5.41407204,21.41856 5.38527204,20.97072 5.38527204,20.54016 C5.38527204,20.0592 5.41551204,19.57392 5.47167204,19.09584 C5.53647204,18.5544 5.99871204,18.14544 6.54735204,18.14544 C6.58767204,18.14544 6.62799204,18.14832 6.66831204,18.15264 C6.95919204,18.1872 7.21551204,18.3312 7.39263204,18.55872 C7.57119204,18.7848 7.65039204,19.06848 7.61583204,19.35504 C7.56831204,19.74672 7.54383204,20.1456 7.54383204,20.5416 C7.54383204,21.04416 7.58559204,21.55536 7.66623204,22.06224 C7.66767204,22.068 7.66911204,22.07808 7.67055204,22.0896 C7.92111204,23.62032 8.53455204,25.08048 9.44463204,26.31456 C9.84927204,26.86176 10.308632,27.36576 10.815512,27.81504 C12.151832,26.77968 13.538552,25.61328 14.948312,24.33744 C9.72831204,19.32336 3.41247204,12.08736 2.20431204,7.5816 C1.77663204,5.99184 1.98399204,4.76208 2.81775204,3.92832 C3.25695204,3.49056 3.85599204,3.2688 4.60047204,3.2688 Z M6.11535204,24.61248 C2.17983204,29.89008 2.00415204,32.11056 2.18703204,32.3856 C2.19423204,32.38704 2.27919204,32.41872 2.46351204,32.41872 C3.69615204,32.41872 6.13407204,31.19472 9.05439204,29.12256 C8.56191204,28.65168 8.10975204,28.14048 7.70943204,27.59616 C7.03983204,26.6904 6.50559204,25.6896 6.11535204,24.61248 Z M27.574232,26.45856 C26.848472,27.71856 25.886552,28.84608 24.746072,29.77056 C26.685752,31.14 28.272632,32.01264 29.361272,32.30208 C29.595992,32.36544 29.817752,32.4 29.983352,32.4 C30.140312,32.4 30.192152,32.36976 30.193592,32.36976 C30.331832,32.17968 30.297272,30.51216 27.574232,26.45856 Z M16.527992,25.81632 C15.220472,27.00144 13.924472,28.1016 12.663032,29.09952 C14.075672,29.8584 15.656792,30.25584 17.278232,30.25584 C18.512312,30.25584 19.743512,30.0168 20.885432,29.56032 C19.481432,28.44144 18.019832,27.1872 16.527992,25.81632 Z M25.841912,15.96672 C23.941112,18.37296 21.893432,20.65392 19.743512,22.75488 C19.217912,23.28048 18.673592,23.81184 18.120632,24.33744 C19.778072,25.85376 21.431192,27.25632 22.943192,28.43136 C22.974872,28.40832 23.007992,28.38528 23.039672,28.3608 C24.553112,27.24336 25.699352,25.73136 26.357432,23.98464 C26.370392,23.94432 26.384792,23.90688 26.402072,23.868 C26.622392,23.26176 26.782232,22.62816 26.878712,21.98736 C27.191192,19.91088 26.823992,17.80128 25.841912,15.96672 Z M4.60911204,5.42016 C4.43775204,5.42016 4.35423204,5.4504 4.33695204,5.46336 C4.10367204,5.69808 4.08351204,6.25392 4.28943204,7.02144 C5.19807204,10.40976 9.98895204,16.596 16.542392,22.86144 C17.103992,22.3272 17.668472,21.77712 18.224312,21.21984 C20.473592,19.02096 22.599032,16.632 24.553112,14.11056 C22.709912,12.01824 20.071832,10.82592 17.252312,10.82592 C15.164312,10.82592 13.174232,11.48112 11.493752,12.7224 C11.305112,12.8592 11.083352,12.93264 10.851512,12.93264 C10.510232,12.93264 10.184792,12.76848 9.98175204,12.49344 C9.81039204,12.2616 9.73983204,11.97648 9.78303204,11.69136 C9.82623204,11.40624 9.97743204,11.15424 10.209272,10.98288 C10.917752,10.4616 11.676632,10.02096 12.475832,9.66816 C8.35887204,6.54912 5.72655204,5.42016 4.60911204,5.42016 Z M30.205112,-2.84217094e-14 C32.599832,-2.84217094e-14 34.546712,1.94832 34.546712,4.3416 C34.546712,6.73488 32.598392,8.6832 30.205112,8.6832 C27.811832,8.6832 25.863512,6.73488 25.863512,4.3416 C25.863512,1.94832 27.811832,-2.84217094e-14 30.205112,-2.84217094e-14 Z M30.205112,2.16 C29.002712,2.16 28.023512,3.1392 28.023512,4.3416 C28.023512,5.544 29.002712,6.5232 30.205112,6.5232 C31.407512,6.5232 32.386712,5.544 32.386712,4.3416 C32.386712,3.1392 31.407512,2.16 30.205112,2.16 Z" id="Combined-Shape" fill="#F46500"></path>
                </g>
            </g>
        </g>
    </g>
</svg>