<?xml version="1.0" encoding="UTF-8"?>
<svg width="46px" height="48px" viewBox="0 0 46 48" version="1.1" xmlns="http://www.w3.org/2000/svg" xmlns:xlink="http://www.w3.org/1999/xlink">
    <title>37873904-C546-401A-A25C-FFDA30980031</title>
    <g id="Page-1" stroke="none" stroke-width="1" fill="none" fill-rule="evenodd">
        <g id="01_3_Find-Work-Challenges-Non-Logged-In-Hover" transform="translate(-344.000000, -1037.000000)">
            <g id="Group-15-Copy-2" transform="translate(329.000000, 1019.000000)">
                <g id="icon-/-challenge-/-track-copy-2" transform="translate(15.000000, 18.000000)">
                    <path d="M16.89,2.25 C18.5775,2.25 20.301,2.553 21.873,3.1275 C25.5375,4.461 28.4655,7.1475 30.1185,10.6905 C31.7715,14.235 31.947,18.2055 30.6135,21.87 C29.925,23.7645 28.875,25.4595 27.489,26.916 L35.616,34.0275 C35.8425,34.2255 35.9775,34.5 35.9985,34.7985 C36.018,35.0985 35.9205,35.388 35.7225,35.6145 C35.508,35.859 35.199,36 34.875,36 C34.602,36 34.3395,35.901 34.134,35.721 L25.8075,28.4355 C23.241,30.4125 20.0805,31.497 16.8555,31.497 C15.156,31.497 13.4775,31.2 11.8695,30.615 C8.523,29.397 5.7405,27.006 4.0335,23.88 C3.8895,23.616 3.8565,23.3115 3.942,23.0235 C4.0275,22.7355 4.218,22.497 4.482,22.353 C4.6455,22.263 4.833,22.215 5.0205,22.215 C5.433,22.215 5.811,22.44 6.009,22.8015 C7.4535,25.446 9.807,27.471 12.639,28.5015 C13.9995,28.9965 15.4185,29.247 16.8555,29.247 C22.047,29.247 26.7255,25.974 28.5,21.1035 C30.8325,14.691 27.5145,7.5765 21.102,5.2425 C19.773,4.7565 18.3165,4.5 16.89,4.5 C16.542,4.5 16.191,4.515 15.8475,4.545 C15.8145,4.548 15.7815,4.5495 15.75,4.5495 C15.162,4.5495 14.6805,4.107 14.6295,3.522 C14.6025,3.222 14.6955,2.931 14.889,2.7 C15.0825,2.4705 15.354,2.3295 15.654,2.3025 C16.0605,2.268 16.4775,2.25 16.89,2.25 Z M12.15,0 C12.324,0 12.498,0.0405 12.6525,0.1185 C13.2075,0.396 13.4325,1.0725 13.155,1.6275 L11.8815,4.1775 C13.386,5.079 14.3925,6.642 14.589,8.3745 L16.398,7.53 C16.5495,7.4595 16.7085,7.425 16.8735,7.425 C17.3085,7.425 17.709,7.68 17.8935,8.073 C18.156,8.6355 17.9115,9.306 17.3505,9.5685 L14.625,10.8405 L14.625,12.375 L16.875,12.375 C17.496,12.375 18,12.879 18,13.5 C18,14.121 17.496,14.625 16.875,14.625 L14.625,14.625 C14.625,15.1485 14.55,15.672 14.4,16.1835 L16.5465,18.33 C16.9845,18.768 16.9845,19.482 16.5465,19.9215 C16.3335,20.133 16.05,20.25 15.75,20.25 C15.45,20.25 15.1665,20.133 14.955,19.92 L13.29,18.2565 C12.2265,19.515 10.6665,20.25 9,20.25 C7.3335,20.25 5.7735,19.515 4.71,18.2565 L3.045,19.92 C2.8335,20.133 2.55,20.25 2.25,20.25 C1.95,20.25 1.6665,20.133 1.455,19.92 C1.017,19.482 1.017,18.768 1.455,18.3285 L3.6,16.1835 C3.45,15.672 3.375,15.1485 3.375,14.625 L1.125,14.625 C0.504,14.625 0,14.1195 0,13.5 C0,12.8805 0.504,12.375 1.125,12.375 L3.375,12.375 L3.375,10.8405 L0.6495,9.5685 C0.087,9.3075 -0.156,8.6355 0.105,8.0745 C0.2895,7.6785 0.69,7.425 1.125,7.425 C1.29,7.425 1.4505,7.461 1.6005,7.53 L3.411,8.3745 C3.6075,6.6405 4.614,5.079 6.1185,4.176 L4.8435,1.6275 C4.566,1.0725 4.7925,0.396 5.346,0.1185 C5.502,0.0405 5.676,0 5.8485,0 C6.2775,0 6.663,0.2385 6.855,0.621 L8.2575,3.4245 C8.505,3.3915 8.754,3.375 9,3.375 C9.246,3.375 9.495,3.3915 9.7425,3.426 L11.1435,0.6225 C11.3355,0.2385 11.721,0 12.15,0 Z M12.375,11.25 L5.625,11.25 L5.625,14.625 C5.625,16.485 7.1385,18 9,18 C10.8615,18 12.375,16.4865 12.375,14.625 L12.375,11.25 Z M9,5.625 C7.1385,5.625 5.625,7.1385 5.625,9 L12.375,9 C12.375,7.1385 10.8615,5.625 9,5.625 Z" id="Combined-Shape" fill="#35AC35" transform="translate(18.000474, 18.000000) scale(-1, 1) translate(-18.000474, -18.000000) "></path>
                </g>
            </g>
        </g>
    </g>
</svg>