<?xml version="1.0" encoding="utf-8"?>
<svg width="45px" height="48px" viewBox="0 0 45 48" version="1.1" xmlns:xlink="http://www.w3.org/1999/xlink" xmlns="http://www.w3.org/2000/svg">
  <g>
    <path d="M3.54985 40.5023C1.65993 40.5023 0.0679972 38.9564 0 37.0545L0 3.45186C0.095996 1.49994 1.65393 2.88473e-15 3.54785 2.88473e-15C3.60185 2.88473e-15 3.65585 0.00199992 3.70785 0.00399983L41.3543 0.00199992C41.3703 0 41.4183 0 41.4663 0C43.3202 0 44.9021 1.51594 44.9941 3.37786L44.9961 37.0005C44.9261 38.9764 43.3542 40.5003 41.4183 40.5003L41.3063 40.4983L38.9964 40.4983C38.1684 40.4983 37.4964 39.8263 37.4964 38.9984C37.4964 38.1704 38.1684 37.4984 38.9964 37.4984C38.9964 37.4984 41.3563 37.4984 41.3563 37.4984C41.7263 37.4984 41.9863 37.2544 41.9982 36.9445L41.9982 3.44986C41.9863 3.22787 41.7283 2.99788 41.4483 2.99788C41.4343 2.99987 3.63985 3.00187 3.63985 3.00187L3.56985 2.99987C3.25786 2.99987 3.01187 3.22587 2.99588 3.52585L2.99788 37.0005C3.00787 37.2544 3.27386 37.5024 3.56985 37.5024L5.99775 37.5004C6.82572 37.5004 7.49769 38.1724 7.49769 39.0004C7.49769 39.8283 6.82572 40.5003 5.99775 40.5003L3.54985 40.5023Z" stroke="none" />
    <path d="M1.49994 2.99988C0.671972 2.99988 0 2.3279 0 1.49994C0 0.671972 0.671972 0 1.49994 0L28.4988 0C29.3268 0 29.9988 0.671972 29.9988 1.49994C29.9988 2.3279 29.3268 2.99988 28.4988 2.99988L1.49994 2.99988Z" transform="translate(7.497688 7.5016875)" stroke="none" />
    <path d="M1.49994 2.99988C0.671972 2.99988 0 2.3279 0 1.49994C0 0.671972 0.671972 0 1.49994 0L21.0651 0C21.8931 0 22.5651 0.671972 22.5651 1.49994C22.5651 2.3279 21.8931 2.99988 21.0651 2.99988L1.49994 2.99988Z" transform="translate(7.43169 15.001375)" stroke="none" />
    <path d="M12.7495 25.4989C5.71976 25.4989 0 19.7792 0 12.7495C0 5.71976 5.71976 0 12.7495 0C19.7792 0 25.4989 5.71976 25.4989 12.7495C25.4989 19.7792 19.7792 25.4989 12.7495 25.4989ZM12.7495 2.99988C7.37369 2.99988 2.99988 7.37369 2.99988 12.7495C2.99988 18.1252 7.37369 22.4991 12.7495 22.4991C18.1252 22.4991 22.4991 18.1252 22.4991 12.7495C22.4991 7.37369 18.1252 2.99988 12.7495 2.99988Z" transform="translate(9.747594 22.501062)" stroke="none" />
    <path d="M4.9078 10.0076C4.30582 10.0076 3.73384 9.81559 3.24986 9.45161C3.15187 9.37761 3.05587 9.29561 2.96788 9.20762L0.437982 6.67772C-0.145994 6.09375 -0.145994 5.14179 0.437982 4.55581C0.72197 4.27182 1.09795 4.11583 1.49794 4.11583C1.89792 4.11583 2.27591 4.27182 2.55789 4.55581L4.8838 6.88171L9.5936 0.599975C9.87559 0.223991 10.3236 0 10.7935 0C11.1195 0 11.4315 0.103996 11.6915 0.299987C12.0115 0.539977 12.2195 0.891963 12.2775 1.28795C12.3335 1.68393 12.2335 2.07991 11.9915 2.3999L7.1157 8.90163C6.66972 9.4936 6.02375 9.87559 5.29378 9.97758C5.16578 9.99758 5.03579 10.0076 4.9078 10.0076Z" transform="translate(16.219324 30.766718)" stroke="none" />
  </g>
</svg>